<?xml version="1.0" encoding="utf-8"?>
<!-- Generator: Adobe Illustrator 20.1.0, SVG Export Plug-In . SVG Version: 6.00 Build 0)  -->
<svg version="1.1" id="Layer_1" xmlns="http://www.w3.org/2000/svg" xmlns:xlink="http://www.w3.org/1999/xlink" x="0px" y="0px"
	 viewBox="0 0 20 20" style="enable-background:new 0 0 20 20;" xml:space="preserve">
<style type="text/css">
	.st0{fill:#8A8A8A;}
</style>
<path class="st0" d="M3.7,16H9v1.3H3.7V16z M10.3,8H3.7v1.3h6.7V8z M13,12V9.3l-4,4l4,4v-2.7h6.7V12H13z M7,10.7H3.7V12H7V10.7z
	 M3.7,14.7H7v-1.3H3.7V14.7z M15.7,16H17v2.7c0,0.4-0.1,0.7-0.4,0.9S16,20,15.7,20H2.3C1.6,20,1,19.4,1,18.7V4
	c0-0.7,0.6-1.3,1.3-1.3h4C6.3,1.2,7.5,0,9,0s2.7,1.2,2.7,2.7h4C16.4,2.7,17,3.3,17,4v6.7h-1.3v-4H2.3v12h13.3V16z M3.7,5.3h10.7
	C14.3,4.6,13.7,4,13,4h-1.3c-0.7,0-1.3-0.6-1.3-1.3S9.7,1.3,9,1.3S7.7,1.9,7.7,2.7S7.1,4,6.3,4H5C4.3,4,3.7,4.6,3.7,5.3z"/>
</svg>
