<?xml version="1.0" encoding="utf-8"?>
<!-- Generator: Adobe Illustrator 20.1.0, SVG Export Plug-In . SVG Version: 6.00 Build 0)  -->
<svg version="1.1" id="Layer_1" xmlns="http://www.w3.org/2000/svg" xmlns:xlink="http://www.w3.org/1999/xlink" x="0px" y="0px"
	 viewBox="0 0 20 20" style="enable-background:new 0 0 20 20;" xml:space="preserve">
<style type="text/css">
	.st0{fill:#8A8A8A;}
</style>
<g id="ban_1_">
	<path class="st0" d="M9.9,0.3c-5.4,0-9.8,4.4-9.8,9.8s4.4,9.8,9.8,9.8c5.4,0,9.8-4.4,9.8-9.8S15.3,0.3,9.9,0.3z M9.9,2.9
		c1.4,0,2.7,0.4,3.8,1.1l-9.9,9.9c-0.7-1.1-1.1-2.4-1.1-3.8C2.8,6.1,6,2.9,9.9,2.9z M9.9,17.2c-1.4,0-2.7-0.4-3.8-1.1L16,6.2
		c0.7,1.1,1.1,2.4,1.1,3.8C17.1,14,13.9,17.2,9.9,17.2z"/>
</g>
</svg>
