<?xml version="1.0" encoding="utf-8"?>
<!-- Generator: Adobe Illustrator 20.1.0, SVG Export Plug-In . SVG Version: 6.00 Build 0)  -->
<svg version="1.1" id="Layer_1" xmlns="http://www.w3.org/2000/svg" xmlns:xlink="http://www.w3.org/1999/xlink" x="0px" y="0px"
	 viewBox="0 0 20 20" style="enable-background:new 0 0 20 20;" xml:space="preserve">
<style type="text/css">
	.st0{fill:#cacaca;}
</style>
<g id="search_2_">
	<path class="st0" d="M19.6,17.3l-4.9-4.9c0.8-1.2,1.3-2.7,1.3-4.3c0-4.4-3.5-7.9-7.9-7.9c-4.4,0-7.9,3.5-7.9,7.9
		c0,4.4,3.5,7.9,7.9,7.9c1.6,0,3-0.5,4.3-1.3l4.9,4.9c0.2,0.2,0.4,0.2,0.6,0l1.8-1.8C19.8,17.8,19.8,17.5,19.6,17.3z M2.7,8.2
		c0-3,2.4-5.4,5.4-5.4c3,0,5.4,2.4,5.4,5.4c0,3-2.4,5.4-5.4,5.4C5.1,13.5,2.7,11.1,2.7,8.2z"/>
</g>
</svg>
